<?xml version="1.0" standalone="no"?><!DOCTYPE svg PUBLIC "-//W3C//DTD SVG 1.1//EN" "http://www.w3.org/Graphics/SVG/1.1/DTD/svg11.dtd"><svg t="1575703644622" class="icon" viewBox="0 0 1365 1024" version="1.1" xmlns="http://www.w3.org/2000/svg" p-id="1369" xmlns:xlink="http://www.w3.org/1999/xlink" width="266.6015625" height="200"><defs><style type="text/css"></style></defs><path d="M682.666667 192a42.666667 42.666667 0 0 0 0 85.333333 234.666667 234.666667 0 0 1 234.666666 234.666667 42.666667 42.666667 0 0 0 85.333334 0A320 320 0 0 0 682.666667 192z" fill="#FFB243" p-id="1370"></path><path d="M1365.333333 512c0-104.106667-88.96-199.893333-244.053333-263.68a512 512 0 0 0-877.44 0C88.96 312.106667 0 407.893333 0 512c0 107.946667 95.573333 202.88 247.466667 264.96a42.666667 42.666667 0 0 0 5.76 14.08 512 512 0 0 0 858.453333 0 42.666667 42.666667 0 0 0 5.973333-14.293333C1269.76 714.88 1365.333333 619.946667 1365.333333 512zM682.666667 938.666667a425.173333 425.173333 0 0 1-293.973334-117.546667A1303.253333 1303.253333 0 0 0 682.666667 853.333333a1303.68 1303.68 0 0 0 293.973333-32.213333A425.173333 425.173333 0 0 1 682.666667 938.666667z m0-170.666667C330.666667 768 85.333333 633.173333 85.333333 512c0-48.853333 38.186667-98.56 105.173334-141.226667A510.293333 510.293333 0 0 0 170.666667 512a42.666667 42.666667 0 0 0 85.333333 0 426.666667 426.666667 0 0 1 853.333333 0 42.666667 42.666667 0 0 0 85.333334 0 510.293333 510.293333 0 0 0-19.84-141.226667c66.986667 42.666667 105.173333 92.373333 105.173333 141.226667 0 121.173333-245.333333 256-597.333333 256z" fill="#211B13" p-id="1371"></path></svg>